# xmcd CD database file
#
# Track frame offsets:
#	150
#	28987
#	52054
#	71931
#	93317
#	114491
#	137011
#	157937
#	180842
#	202171
#	224102
#	243258
#	263515
#	278583
#	302914
#	322141
#	343721
#
# Disc length: 4814 seconds
#
# Revision: 0
# Processed by: cddbd v1.5.1PL0 Copyright (c) Steve Scherf et al.
# Submitted via: CDex 1.50
#
DISCID=0612cc11
DTITLE=Varios Interpretes - MAria Cecilia 5
DYEAR=2004
DGENRE=Salsa
TTITLE0=Thinking of you- Lenny Kravitz
TTITLE1=5 dias , 5 noches - Paquito Guzman
TTITLE2=Amada mia - Jose Alberto el canario
TTITLE3=Apaga La Luz - Antonio Cartagena
TTITLE4=Como fue capaz - Kevin Ceballo
TTITLE5=Como sera - Edgar Joel
TTITLE6=Creo en el amor - Rey Ruiz
TTITLE7=Cuenta Conmigo - Jerry Rivera
TTITLE8=Desesperadamente - Frankie Negron
TTITLE9=Ella - Rey Ruiz
TTITLE10=No Digas Nada Y Baila - Gilberto Santa Rosa
TTITLE11=No Moriras - DLG
TTITLE12=Pura falsedad - Salsa de Reyes
TTITLE13=Se Supone - Gilberto Santa Rosa
TTITLE14=Soy tuyo - Dominic
TTITLE15=Vivir Asi Es Morir De - Dominic
TTITLE16=Ya no eres tu - Guaco -Gilberto Santa Rosa
EXTD=YEAR: 2004
EXTT0=
EXTT1=
EXTT2=
EXTT3=
EXTT4=
EXTT5=
EXTT6=
EXTT7=
EXTT8=
EXTT9=
EXTT10=
EXTT11=
EXTT12=
EXTT13=
EXTT14=
EXTT15=
EXTT16=
PLAYORDER=
